<?xml version="1.0" encoding="UTF-8" standalone="no"?>
<!DOCTYPE svg PUBLIC "-//W3C//DTD SVG 1.1//EN" "http://www.w3.org/Graphics/SVG/1.1/DTD/svg11.dtd">
<svg width="100%" height="100%" viewBox="0 0 200 200" version="1.1" xmlns="http://www.w3.org/2000/svg" xmlns:xlink="http://www.w3.org/1999/xlink" xml:space="preserve" xmlns:serif="http://www.serif.com/" style="fill-rule:evenodd;clip-rule:evenodd;stroke-linecap:round;stroke-miterlimit:10;">
    <rect id="Artboard1" x="0" y="0" width="200" height="200" style="fill:none;"/>
    <g id="Artboard11" serif:id="Artboard1">
        <rect x="0" y="0" width="200" height="200" style="fill:rgb(14,14,14);"/>
        <g transform="matrix(1.28125,0,0,1.28125,100,100)">
            <g transform="matrix(1,0,0,1,-64,-64)">
                <g transform="matrix(2,0,0,2,0,0)">
                    <clipPath id="_clip1">
                        <path d="M12,35L6.72,30.79L4.72,24.79L5.72,17.79L9.72,12.79L14.72,9.79L20.72,9.79L25.72,10.79L28.72,13.79L33,20L27,24L21,24L18,27L18,31L14,33L12,35Z"/>
                    </clipPath>
                    <g clip-path="url(#_clip1)">
                        <g>
                            <path d="M23.5,24C23.5,26.469 21.469,28.5 19,28.5C16.531,28.5 14.5,26.469 14.5,24C14.5,21.531 16.531,19.5 19,19.5C19.003,19.5 19.007,19.5 19.01,19.5C21.473,19.5 23.5,21.527 23.5,23.99C23.5,23.993 23.5,23.997 23.5,24ZM19,15.67L19,12.5M19,35.5L19,32.33M24.89,18.11L27.13,15.87M10.87,32.13L13.11,29.89M13.11,18.11L10.87,15.87M27.13,32.13L24.89,29.89M7.5,24L10.67,24M30.5,24L27.33,24" style="fill:white;fill-rule:nonzero;stroke:white;stroke-width:2px;"/>
                        </g>
                    </g>
                </g>
                <g transform="matrix(2,0,0,2,0,0)">
                    <path d="M46.5,31.5L46.18,31.5C46.376,30.69 46.476,29.86 46.476,29.027C46.476,23.273 41.74,18.537 35.986,18.537C32.359,18.537 28.981,20.418 27.07,23.5C25.989,22.859 24.756,22.521 23.5,22.521C19.668,22.521 16.512,25.668 16.5,29.5C16.503,29.882 16.537,30.263 16.6,30.64C13.094,31.327 10.542,34.428 10.542,38C10.542,42.099 13.901,45.477 18,45.5C18.167,45.51 18.333,45.51 18.5,45.5L46.5,45.5C50.34,45.5 53.5,42.34 53.5,38.5C53.5,34.66 50.34,31.5 46.5,31.5Z" style="fill:white;fill-opacity:0;fill-rule:nonzero;stroke:white;stroke-width:3px;stroke-linecap:butt;stroke-linejoin:round;stroke-miterlimit:4;"/>
                </g>
            </g>
        </g>
    </g>
</svg>
