<?xml version="1.0" encoding="UTF-8"?>
<svg width="100pt" height="100pt" version="1.1" viewBox="0 0 100 100" xmlns="http://www.w3.org/2000/svg">
 <path d="m50 93.75c-24.125 0-43.75-19.625-43.75-43.75s19.625-43.75 43.75-43.75 43.75 19.625 43.75 43.75-19.625 43.75-43.75 43.75zm0-81.25c-20.688 0-37.5 16.812-37.5 37.5s16.812 37.5 37.5 37.5 37.5-16.812 37.5-37.5-16.812-37.5-37.5-37.5zm-10.281 64.719 22.781-22.781c2.4375-2.4375 2.4375-6.4062 0-8.8438l-22.781-22.781c-1.2188-1.2188-3.1875-1.2188-4.4062 0s-1.2188 3.1875 0 4.4062l22.781 22.781-22.781 22.781c-1.2188 1.2188-1.2188 3.1875 0 4.4062 0.625 0.625 1.4062 0.90625 2.2188 0.90625s1.5938-0.3125 2.2188-0.90625z" fill="#ccc"/>
</svg>
